<?xml version="1.0" encoding="utf-8"?>
<!-- Generator: Adobe Illustrator 25.2.1, SVG Export Plug-In . SVG Version: 6.00 Build 0)  -->
<svg version="1.1" id="Layer_1" xmlns="http://www.w3.org/2000/svg" xmlns:xlink="http://www.w3.org/1999/xlink" x="0px" y="0px"
	 viewBox="0 0 1080 1080" style="enable-background:new 0 0 1080 1080;" xml:space="preserve">
<style type="text/css">
	.st0{fill:#0C3455;}
</style>
<g>
	<g>
		<g>
			<path class="st0" d="M1020,427.4c-1.3,28.8-6.3,56.4-16.4,83.2c-14.1,37.2-39.2,63.8-76.2,78.2c-57.1,22.1-114.9,26.1-173.7,5.8
				c-64.7-22.3-99.7-67.9-107.9-135.1c-3.8-31.6-2.1-63.1,5.4-93.9c11.6-47.4,38.9-82.7,85.1-101.3c64.1-25.9,128.2-26.2,191.9,1.6
				c48,21,76.1,57.7,85,109.1C1016.2,392.4,1017.8,410,1020,427.4z M892.2,424.7c-0.6-9.5-1.1-21-2.1-32.5
				c-0.7-7.8-1.9-15.5-3.5-23.1c-3.9-18.9-15.5-31.6-34.4-34.5c-13.1-2-27.2-1.9-40.2,0.4c-22.9,4.1-33.7,17.2-35.7,40.5
				c-1.6,19-3.2,38.1-3,57.1c0.2,17,1.9,34.1,4.7,50.8c3.2,19.2,15.2,32.3,34.7,35c13.2,1.8,27.2,1.8,40.2-0.8
				c23.4-4.6,33.3-17,35.5-40.7C889.9,460.3,890.8,443.6,892.2,424.7z"/>
		</g>
		<g>
			<path class="st0" d="M381.9,575.4c0,7.7-0.2,13.2,0.1,18.6c0.2,4.5-1.8,6.2-6.1,6.2c-21.7-0.1-43.4,0.1-65-0.3
				c-2.1,0-5.9-3.8-5.9-5.9c-0.4-38.5-0.2-76.9-0.3-115.4c0-4.9,2.2-6.5,6.9-6.5c19.1,0.2,38.2,0,57.2,0.4c2.9,0.1,6.7,2.2,8.4,4.6
				c29.6,41.8,71.7,52.6,119.8,48.3c7.4-0.7,14.9-2.5,21.8-5.2c3.4-1.3,7.2-5.7,7.7-9.1c0.4-2.8-3.2-7.4-6.2-9.2
				c-6.2-3.6-13-6.3-19.8-8.4c-36.4-11.3-73-22.2-109.4-33.3c-26.9-8.2-49.5-22.6-68.3-43.9c-32.8-37-28.3-118,25.8-148.8
				c32.7-18.6,67.8-23.8,104.5-21.4c30.1,1.9,58.7,9.2,84.8,25.1c2.6,1.6,5.5,2.7,10,4.9c0.4-5.5,1-9.6,0.8-13.7
				c-0.2-5.1,1.4-7.3,6.8-7.3c20.2,0.2,40.5,0.2,60.7,0c4.7,0,6.8,1.5,6.7,6.5c-0.1,34.7-0.2,69.4,0,104.1c0,6.1-2.7,8-8.4,7.9
				c-19.1-0.2-38.2,0.1-57.2-0.4c-3.5-0.1-7.9-2.3-10.1-5c-31.7-37-73.6-46.3-119.7-44.4c-0.3,0-0.6,0.1-0.8,0.2
				c-10.5,1.9-18.3,7.9-18.2,14.7c0.2,9.7,8,13.1,15.4,15.4c26,8,52.1,15.3,78.2,22.9c16.1,4.7,32.3,9.1,48.1,14.4
				c41.5,13.8,70.1,40.6,81.4,83.8c12.4,47.5-14.3,100.2-61.8,118.5c-60.1,23.2-119.1,16.9-175.9-12.5
				C390.3,579.8,387.1,578.1,381.9,575.4z"/>
		</g>
		<g>
			<path class="st0" d="M59.9,334.1c0-25.8,0.1-50.9-0.1-76c-0.1-7.2,2.8-9.2,9.9-9.2c43.6,0.3,87.3,0.2,130.9,0.1
				c24.6,0,49.1,0.1,73.7-0.2c6-0.1,9,1.1,8.9,8.1c-0.3,23.1-0.2,46.2,0.1,69.4c0.1,6.1-2,8.2-8,8c-11.8-0.4-23.7,0.1-35.5-0.3
				c-6.5-0.2-8.6,2.3-8.6,8.6c0.2,54.9,0.2,109.8,0,164.8c0,7.1,2.8,8.9,9.3,8.7c11.8-0.4,23.7,0,35.5-0.3c5.1-0.1,7.2,1.7,7.2,7
				c-0.2,23.4-0.3,46.8,0,70.2c0.1,7.8-4.7,7.2-9.7,7.2c-44.5,0-89,0-133.5,0c-23.4,0-46.8-0.2-70.2,0.1c-6.9,0.1-9.8-1.6-9.6-9.1
				c0.4-22,0.5-43.9,0-65.9c-0.2-7.9,2.6-10,10-9.6c11,0.6,22,0,32.9,0.3c5.8,0.2,8.3-1.7,8.3-7.9c-0.2-55.5-0.2-111,0-166.5
				c0-6.4-2.8-7.8-8.4-7.7C88.8,334.3,74.7,334.1,59.9,334.1z"/>
		</g>
		<g>
			<path class="st0" d="M858.6,208.5c-8.5,3.7-14.3,0.4-19.2-6.5c-19-26.8-41.8-50.1-67-71.1c-6.2-5.2-11.3-6.5-18.4-1.5
				c-7.3,5.1-15.2,9.5-23.2,13.6c-7,3.6-7.3,7.1-2.5,13.2c13.1,16.8,25.6,34.1,38.8,51.8c-8.4,4.7-14.2,2-19.1-4.2
				c-10.9-13.8-22-27.6-32.6-41.6c-4.1-5.4-7.7-7-14.5-4.4c-17.5,6.8-35.3,12.8-53.1,18.8c-5.5,1.9-7.5,4.1-4.8,10
				c3.4,7.2,5.8,14.9,8.8,22.6c-8.7,2.7-13.9,0.6-17.7-7.6c-8.7-18.4-8.9-17.6-29.3-14.4c-21.1,3.3-42.4,5.4-63.7,7.4
				c-5.9,0.6-9.4,1.9-8.7,8.5c0.5,5.4-2.7,6.8-7.5,6.9c-5.1,0.1-6.7-2.4-6.2-7c0.6-6.5-2.8-8.4-8.7-9c-26.7-3-53.3-6.2-79.9-9.6
				c-4.9-0.6-7.6,0.8-9.5,5.2c-2.2,5-4.5,10-7,14.9c-3.3,6.2-8.4,8.1-16.1,4.8c3.2-7.4,6-14.6,9.3-21.5c2.5-5.1,1.3-8-4-9.9
				c-18.5-6.5-37.1-13-55.4-19.9c-5.7-2.1-8.6,0.4-11.7,4.3c-11,14.2-22.3,28.1-33,42.4c-4.5,6-9.6,7.6-18.7,4.5
				c14.5-20.3,28.5-39.8,43.4-60.5c-12.8-7.3-25.3-14.8-38.4-21.3c-2.3-1.2-7.6,1.6-10.5,3.9c-25.4,20.4-47.5,44-66.5,70.4
				c-5,6.9-10.6,10.4-20.7,7.5C262.5,104.2,360.8,44,485.8,31.1C649.4,14.2,787.8,97.8,858.6,208.5z M518.3,136.8c0,0-0.1,0-0.1,0
				c0-11.8,0.3-23.7-0.2-35.5c-0.1-2.7-2.7-7-4.8-7.5c-8.4-1.8-17.1-2.8-25.7-3.3c-2.3-0.1-5.8,1.8-7.1,3.8
				c-15.6,22.9-30.9,45.9-46.2,69c-3.1,4.7-2.2,8.5,3.9,9.2c24,2.7,48.1,5.1,72.2,7.6c5.9,0.6,8.3-1.7,8.1-7.8
				C518.1,160.5,518.3,148.6,518.3,136.8z M618,171c-2.2-4.6-3.2-7.3-4.7-9.6c-11.1-17.6-21.8-35.4-33.6-52.5
				c-13.9-20.1-14.4-19.6-38.8-15.9c-6.4,1-8.7,3.7-8.6,10.2c0.4,22.5,0.2,45.1,0.3,67.6c0,3.3,0.5,6.6,0.9,11.6
				C561.8,178.6,588.9,175,618,171z M580.9,86.3c16.5,25.6,32.7,51,49.3,75.9c1.4,2.1,6.8,3.3,9.6,2.4c16.8-5.3,33.3-11.2,49.9-17.2
				c2.5-0.9,4.6-2.8,7.2-4.6c-1.9-2.2-2.9-3.7-4.2-4.8c-23.9-20.5-47.2-41.7-75.5-56.4C602.9,74.2,594.8,74.7,580.9,86.3z
				 M353.4,144.4c1.8,1.2,2.7,2.1,3.7,2.5c18.2,6.4,36.4,13,54.7,18.9c2.1,0.7,6.4-1.4,7.7-3.4c15.5-23.6,30.7-47.4,45.7-71.3
				c1.1-1.8,1.7-5.4,0.6-6.8c-4.3-5.9-21.9-8.8-28.4-5.1c-28.8,16.2-54.7,36.3-78.9,58.8C357.1,139.6,355.8,141.5,353.4,144.4z
				 M607.6,52.9c-55.9-14.3-111.2-12.7-166.8,0.2c25,20.7,54.2,28.1,85.6,27.2C556.1,79.4,584.3,73.3,607.6,52.9z M298.4,116.7
				c9.8,5.6,18.3,10.3,26.7,15.1c12.9,7.2,12.5,6.7,23.7-2.3c22.5-18,45.6-35.4,68.4-53c2.7-2.1,5.8-3.8,8.6-5.8
				c3.7-2.6,4.2-6.1,0.2-8.2c-4-2.1-9.4-4.7-13.1-3.6C376,70.1,341.2,86,309.1,107.7C305.9,109.9,303.1,112.8,298.4,116.7z
				 M750.3,115.7c-3.5-3.1-5-4.8-6.8-6.1c-30.7-20.8-63.2-38.1-99-48.6c-3.6-1.1-7.3-3.1-10.8-2.8c-3.9,0.4-7.5,3.1-11.2,4.8
				c2,3,3.5,6.6,6.1,9c2.6,2.5,6.5,3.7,9.4,6c22.1,17.5,44.1,35.2,66.4,52.6c3.1,2.4,8.4,5.7,10.7,4.6
				C726.7,129.8,737.7,123,750.3,115.7z"/>
		</g>
		<g>
			<path class="st0" d="M191.5,640.6c10.2-4.6,15.7-1.1,20.4,5.5c19.4,27.2,42.1,51.4,67.8,72.8c6,5,10.9,6,17.6,1.5
				c7.6-5.2,15.7-9.7,23.9-14.1c6.8-3.6,7.7-7.3,2.8-13.5c-10.5-13.4-20.6-27.2-30.8-40.9c-2.7-3.7-5-7.6-7.7-11.8
				c8.6-4.2,13.9-0.7,18.5,5.3c10.8,14,21.8,27.7,32.3,41.9c4.1,5.6,8.1,6.8,14.7,4.2c18-7,36.3-13.4,54.6-19.7
				c5.7-2,7.3-4.3,4.3-10c-3.7-7.1-6.6-14.6-9.9-22.1c9-2.9,14.1-0.7,18,7.4c8.9,18.2,9.2,17.7,29.4,14.9
				c20.9-2.9,41.9-5.1,62.9-7.2c7.1-0.7,11.5-2.4,10.8-10.8c-0.1-1.7,4.1-5.3,6.3-5.2c2.4,0.1,6.8,3.5,6.7,5.2
				c-0.8,9,4.7,9.5,11.3,10.4c25.5,3.2,51,6.6,76.4,10.3c4.7,0.7,7.7-0.1,9.7-4.6c2-4.5,4.8-8.7,6.4-13.2c3-8.4,8.5-10,17.2-7.2
				c-3.7,9.5-7.3,18.7-11.4,29.1c5.7,2.2,11.2,4.4,16.8,6.4c14.7,5.3,29.4,10.4,44,16c5.4,2.1,8.9,1.4,12.5-3.5
				c10.1-13.7,20.7-27.1,31.1-40.6c7.1-9.3,7.1-9.4,21.8-7.7c-15,20.4-29.3,40-44.8,61c13.4,7.5,26.4,15.3,40,21.9
				c2.3,1.1,7.6-1.9,10.5-4.2c25.2-20.7,46.9-44.7,65.7-71.2c5-7.1,10.4-10.4,20.1-6.4c-76.9,112-182,174.9-317.7,180
				C394.2,826.1,278.5,761.6,191.5,640.6z M621.8,680.6c-2.2-1.6-2.9-2.5-3.6-2.6c-26-3.2-52-6.5-78-9.3c-1.7-0.2-5.5,3.9-5.5,6.1
				c-0.4,24.8-0.1,49.6-0.3,74.4c0,5.2,2.2,7.2,7,7.7c6.6,0.7,13.2,1.4,19.7,2.8c6,1.2,9.9-0.9,13.2-5.7c8.5-12.4,17.5-24.4,25.6-37
				C607.6,705.3,614.4,693,621.8,680.6z M520.8,712.6c-0.1,0-0.1,0-0.2,0c0-11.8-0.3-23.7,0.1-35.5c0.2-6.8-2-9.5-9-8.6
				c-23.4,3-46.9,5.9-70.4,8.7c-6.4,0.8-7.1,3.7-4,8.7c11.2,17.8,21.8,36,33.6,53.4c14.9,21.8,15.3,21.3,41.1,17.8
				c6.2-0.9,9.2-3,8.9-9.8C520.5,735.7,520.8,724.2,520.8,712.6z M355.4,705.9c1.2,2,1.6,3.5,2.6,4.4c25.5,24.4,53.1,46.2,84.3,62.9
				c1.9,1,4.7,1.8,6.5,1.1c7.5-2.7,14.7-6,22.9-9.5c-17.4-27.3-33.9-53.5-50.9-79.5c-1-1.6-5.7-1.9-8.1-1.1
				c-16.7,5.5-33.2,11.5-49.7,17.5C360.4,702.6,358.1,704.3,355.4,705.9z M698.5,705.8c-0.8-1.3-0.9-2.1-1.3-2.3
				c-19-6.7-38-13.5-57.1-19.8c-1.6-0.5-5,1.4-6.1,3.1c-15.8,24.2-31.4,48.5-46.7,72.9c-1,1.6-1,5.4,0.1,6.7c5.4,6,20.9,8,28,4.1
				c28.7-15.9,54.9-35.2,78-58.6C695.3,709.9,696.9,707.7,698.5,705.8z M611.9,798.2c-19.1-36.2-145.1-36.5-168.6-0.2
				C499.8,812.3,555.2,810.7,611.9,798.2z M754.6,732.9c-10.9-6.1-20.8-11.2-30.2-17.3c-7.2-4.7-12-3-18.3,2.1
				c-25,20.4-50.6,40.2-75.9,60.3c-2.1,1.7-4,3.7-8.4,7.7c6.8,2.5,12.2,6.7,15.9,5.5c38.7-12,76.3-26.8,109.2-51.4
				C749.2,738.3,751.1,736.2,754.6,732.9z M420.4,793.2c3-2.2,6.6-4.8,10.1-7.4c-1.9-2.5-3.3-5.9-5.9-7.4
				c-28.6-17.6-55.1-37.8-78.6-61.9c-3.8-3.9-7.2-4.9-12.1-1.9c-7.4,4.5-15.1,8.4-22.6,12.7c-10.4,6-10.6,8-0.8,14.6
				c24.2,16.4,49.8,30.1,77.3,40.2C398.1,785.8,408.5,789.1,420.4,793.2z"/>
		</g>
	</g>
	<g>
		<path class="st0" d="M383,922c13.4,13.7,20.1,33.4,20.1,59.1c0,18.5-3.6,34.3-10.7,47.6c-7.2,13.3-17.2,23.4-30.2,30.3
			c-13,6.9-28,10.4-45.1,10.4c-9.1,0-17.8-1-26.1-3.1c-8.3-2.1-15.4-5-21.2-8.7l16.6-32.8c7.8,5.5,17.8,8.3,29.8,8.3
			c11.5,0,20.9-3.2,28-9.6c7.2-6.4,11.3-15.7,12.6-27.8c-9.2,7.8-21.3,11.8-36.2,11.8c-10.2,0-19.5-2.1-27.9-6.3
			c-8.5-4.2-15.2-10.2-20.2-18c-5-7.8-7.5-16.6-7.5-26.7c0-10.9,2.8-20.6,8.4-29c5.6-8.4,13.2-14.8,22.8-19.4
			c9.6-4.5,20.3-6.8,32-6.8C351.3,901.4,369.7,908.3,383,922z M347.5,969.2c4.2-3.8,6.2-8.7,6.2-14.9c0-6-2-10.9-6.1-14.7
			c-4.1-3.8-9.6-5.7-16.5-5.7c-6.5,0-11.7,1.8-15.8,5.5c-4.1,3.7-6.1,8.7-6.1,15c0,6.2,2,11.1,6.1,14.8c4.1,3.7,9.4,5.5,16,5.5
			C338,974.8,343.3,972.9,347.5,969.2z"/>
		<path class="st0" d="M453.2,1059.5c-10.8-6.6-19.2-16.3-25.3-29c-6.1-12.7-9.1-27.7-9.1-45.1c0-17.4,3-32.4,9.1-45.1
			c6.1-12.7,14.5-22.3,25.3-29c10.8-6.6,23.1-9.9,36.9-9.9c13.7,0,25.9,3.3,36.7,9.9c10.8,6.6,19.2,16.3,25.3,29
			c6.1,12.7,9.1,27.7,9.1,45.1c0,17.4-3,32.4-9.1,45.1c-6.1,12.7-14.5,22.3-25.3,29c-10.8,6.6-23,9.9-36.7,9.9
			C476.2,1069.4,463.9,1066.1,453.2,1059.5z M508.4,1020.9c4.5-7.5,6.8-19.3,6.8-35.4c0-16.2-2.3-28-6.8-35.4
			c-4.5-7.5-10.7-11.2-18.3-11.2c-7.8,0-14,3.7-18.6,11.2c-4.5,7.5-6.8,19.3-6.8,35.4c0,16.2,2.3,28,6.8,35.4
			c4.5,7.5,10.7,11.2,18.6,11.2C497.8,1032,503.9,1028.3,508.4,1020.9z"/>
		<path class="st0" d="M611.2,1059.5c-10.8-6.6-19.2-16.3-25.3-29c-6.1-12.7-9.1-27.7-9.1-45.1c0-17.4,3-32.4,9.1-45.1
			c6.1-12.7,14.5-22.3,25.3-29c10.8-6.6,23.1-9.9,36.9-9.9c13.7,0,25.9,3.3,36.7,9.9c10.8,6.6,19.2,16.3,25.3,29
			c6.1,12.7,9.1,27.7,9.1,45.1c0,17.4-3,32.4-9.1,45.1c-6.1,12.7-14.5,22.3-25.3,29c-10.8,6.6-23,9.9-36.7,9.9
			C634.3,1069.4,622,1066.1,611.2,1059.5z M666.5,1020.9c4.5-7.5,6.8-19.3,6.8-35.4c0-16.2-2.3-28-6.8-35.4
			c-4.5-7.5-10.7-11.2-18.3-11.2c-7.8,0-14,3.7-18.6,11.2c-4.5,7.5-6.8,19.3-6.8,35.4c0,16.2,2.3,28,6.8,35.4
			c4.5,7.5,10.7,11.2,18.6,11.2C655.8,1032,662,1028.3,666.5,1020.9z"/>
		<path class="st0" d="M802.3,904.7v161.5h-45.7V940h-30v-35.3H802.3z"/>
	</g>
</g>
</svg>
