<svg xmlns="http://www.w3.org/2000/svg" xmlns:xlink="http://www.w3.org/1999/xlink" version="1.1" id="Layer_1" x="0px" y="0px" style="enable-background:new 0 0 1080 1080;" xml:space="preserve" viewBox="300.34 357.26 479.1 366.41">
<style type="text/css">
	.st0{fill:#C60039;}
</style>
<path class="st0" d="M751.84,602.66c0.77-46.14-11.49-88.14-36.44-124.83c-25.37-37.32-60.13-64.43-103.3-80.58l-2.28-0.85  l5.48-39.14H464.43l0.61,4.25c0.44,3.02,0.86,6.01,1.27,8.99l0.07,0.51c1.07,7.61,2.17,15.45,3.43,23.08l0.41,2.49l-2.38,0.86  c-41.23,14.93-75.04,40.56-100.5,76.18c-26.08,36.48-39.32,77.95-39.36,123.26l0,8.88h-27.64v70.71l2.31,0.94  c45.54,18.54,95.16,31.85,147.49,39.57c30.07,4.44,60.38,6.69,90.1,6.69c21.24,0,42.51-1.15,63.23-3.42  c61.55-6.74,119.97-21.15,173.65-42.84l2.32-0.94v-70.72h-27.67L751.84,602.66z M574.91,392.33l-22.56,157.99h-24.89l-22.57-157.99  H574.91z M418.86,467.78l4.24-4.12l16.68,110.57l33.69-4.98v-3.21c0-0.01,0-0.03,0-0.04l-0.01,0l0.04-1.01  c0.04-0.92,0.08-1.95-0.09-3.07l-0.95-6.33c-5.49-36.54-11.17-74.32-16.95-111.96l-0.36-2.54l2.14-0.91c4.67-2,9.14-4.11,14.08-6.47  l3.73-1.78l21.93,153.32h85.74l21.94-153.41l3.72,1.75c4.81,2.27,9.51,4.49,14.11,6.84l1.94,0.99l-0.31,2.16  c-2.92,20.2-6.03,40.7-9.04,60.53l-4.38,28.89c-1.48,9.74-2.95,19.48-4.41,29.23c-0.14,0.92-0.11,1.72-0.08,2.57  c0.01,0.37,0.02,0.73,0.02,1.12v3.19l33.71,5.16l16.67-110.52l4.22,3.91c13.24,12.29,24.11,26.13,33.24,42.29  c16.06,28.45,23.47,58.73,22.63,92.55l-0.07,2.97H363.02l-0.04-3C362.24,549.03,380.52,504.97,418.86,467.78z M744.26,652.55  l-2.04,0.71c-66.75,23.21-134.78,34.98-202.2,34.98c-67.44,0-135.53-11.77-202.39-35l-2.04-0.71v-11.42h408.68V652.55z"/>
</svg>